<?xml version="1.0" encoding="utf-8"?>
<svg viewBox="0 0 500 500" xmlns="http://www.w3.org/2000/svg">
  <title/>
  <path d="M 414.032 224.012 C 427.079 210.725 420.847 188.295 402.814 183.641 C 402.022 183.436 312.826 169.773 312.826 169.773 C 310.259 169.374 308.06 167.719 306.969 165.361 L 268.339 82.897 C 260.451 66.12 237.361 64.173 226.776 79.392 C 226.005 80.501 186.122 165.413 186.122 165.413 C 185.017 167.751 182.822 169.387 180.265 169.773 L 92.681 183.258 C 74.271 186.061 65.799 207.742 77.431 222.285 C 77.942 222.925 143.435 290.321 143.435 290.321 C 145.16 292.105 145.947 294.597 145.559 297.05 L 130.494 389.673 C 127.48 407.987 145.422 422.694 162.788 416.147 C 163.861 415.742 164.905 415.261 165.909 414.709 L 242.76 372.074 C 245.085 370.769 247.925 370.769 250.251 372.074 L 327.102 414.709 C 343.361 423.657 363.21 411.651 362.832 393.095 C 362.809 391.949 362.704 390.806 362.516 389.673 L 347.452 297.05 C 347.06 294.597 347.846 292.103 349.576 290.321 L 414.032 224.012 Z" style="stroke-width: 4px; paint-order: stroke; fill: rgb(248, 255, 59); stroke: rgb(248, 255, 59);"/>
</svg>