<?xml version="1.0" encoding="utf-8"?>
<svg version="1.1" id="Layer_1" x="0px" y="0px" viewBox="0 0 32 32" style="enable-background:new 0 0 32 32;" xmlns="http://www.w3.org/2000/svg">
  <style type="text/css" id="style3">
	.st0{fill:none;stroke:#000000;stroke-linecap:round;stroke-linejoin:round;stroke-miterlimit:10;}
	.st1{fill:none;stroke:#010101;stroke-linecap:round;stroke-linejoin:round;stroke-miterlimit:10;}
	.st2{fill:none;stroke:#060707;stroke-linecap:round;stroke-linejoin:round;stroke-miterlimit:10;}
	.st3{fill:#010101;}
	.st4{fill:#FFFFFF;stroke:#010101;stroke-linecap:round;stroke-linejoin:round;stroke-miterlimit:10;}
</style>
  <path style="stroke: none; fill: rgb(49, 169, 255);" d="M 22.882812 3.8007812 C 22.493938 3.8010312 22.106719 3.9421095 21.824219 4.2246094 L 20.423828 5.625 L 18.996094 7.0527344 L 6.265625 19.78125 C 6.238625 19.80825 6.2250781 19.841047 6.2050781 19.873047 C 6.0950781 19.933047 6.0067969 20.033109 5.9667969 20.162109 L 4.0234375 26.349609 C 3.9674375 26.527609 4.0154375 26.723469 4.1484375 26.855469 C 4.2434375 26.949469 4.37 27 4.5 27 C 4.552 27 4.6042969 26.992603 4.6542969 26.976562 L 10.927734 24.943359 C 11.026734 24.911359 11.104062 24.846529 11.164062 24.769531 C 11.181062 24.756531 11.200797 24.750375 11.216797 24.734375 L 23.945312 12.005859 L 26.773438 9.1757812 C 27.358438 8.5887813 27.358437 7.6377345 26.773438 7.0527344 L 23.945312 4.2246094 C 23.662312 3.9411094 23.271687 3.8005313 22.882812 3.8007812 z M 22.882812 4.7910156 C 23.012313 4.7910156 23.143282 4.8371406 23.238281 4.9316406 L 26.066406 7.7597656 C 26.261406 7.9547656 26.261405 8.2717969 26.066406 8.4667969 L 25.019531 9.5136719 L 21.484375 5.9785156 L 22.53125 4.9316406 C 22.62525 4.8371406 22.753312 4.7910156 22.882812 4.7910156 z M 20.777344 6.6855469 L 24.3125 10.220703 L 23.591797 10.943359 L 21.824219 9.1738281 L 20.054688 7.4082031 L 20.777344 6.6855469 z M 19.347656 8.1152344 L 20.054688 8.8222656 L 8.5839844 20.292969 L 7.4335938 20.027344 L 19.347656 8.1152344 z M 20.761719 9.5292969 L 21.117188 9.8828125 L 21.470703 10.236328 L 10 21.705078 L 9.2421875 21.736328 L 9.2421875 21.048828 L 20.761719 9.5292969 z M 22.175781 10.943359 L 22.882812 11.650391 L 11.046875 23.486328 L 10.767578 22.349609 L 22.175781 10.943359 z M 6.78125 20.902344 L 8.2421875 21.240234 L 8.2421875 22.255859 C 8.2421875 22.391859 8.2965316 22.524188 8.3945312 22.617188 C 8.4925313 22.712187 8.6307187 22.758859 8.7617188 22.755859 L 9.8261719 22.712891 L 10.177734 24.132812 L 7.8085938 24.900391 C 7.7845937 24.833391 7.7493127 24.769797 7.6953125 24.716797 L 6.28125 23.302734 C 6.21925 23.240734 6.1454063 23.204645 6.0664062 23.181641 L 6.78125 20.902344 z M 5.75 24.185547 L 6.7949219 25.230469 L 5.265625 25.724609 L 5.75 24.185547 z " id="path5"/>
</svg>