<?xml version="1.0" encoding="utf-8"?>
<svg viewBox="0 0 500 500" xmlns="http://www.w3.org/2000/svg">
  <title/>
  <path d="M 414.011 230.516 C 427.058 217.229 420.826 194.799 402.793 190.145 C 402.001 189.94 312.805 176.277 312.805 176.277 C 310.238 175.878 308.039 174.223 306.948 171.865 L 268.318 89.401 C 260.43 72.624 237.34 70.677 226.755 85.896 C 225.984 87.005 186.101 171.917 186.101 171.917 C 184.996 174.255 182.801 175.891 180.244 176.277 L 92.66 189.762 C 74.25 192.565 65.778 214.246 77.41 228.789 C 77.921 229.429 143.414 296.825 143.414 296.825 C 145.139 298.609 145.926 301.101 145.538 303.554 L 130.473 396.177 C 127.459 414.491 145.401 429.198 162.767 422.651 C 163.84 422.246 164.884 421.765 165.888 421.213 L 242.739 378.578 C 245.064 377.273 247.904 377.273 250.23 378.578 L 327.081 421.213 C 343.34 430.161 363.189 418.155 362.811 399.599 C 362.788 398.453 362.683 397.31 362.495 396.177 L 347.431 303.554 C 347.039 301.101 347.825 298.607 349.555 296.825 L 414.011 230.516 Z M 331.412 306.087 L 346.477 398.711 C 347.006 401.681 345.75 404.684 343.263 406.392 C 340.861 408.132 337.663 408.302 335.09 406.829 L 258.211 364.25 C 250.958 360.193 242.119 360.193 234.866 364.25 L 158.014 406.829 C 155.44 408.295 152.247 408.124 149.842 406.392 C 147.355 404.684 146.098 401.681 146.627 398.711 L 161.692 306.087 C 162.926 298.493 160.492 290.762 155.126 285.246 L 90.753 219.131 C 88.681 217.03 87.984 213.934 88.956 211.147 C 89.839 208.359 92.243 206.325 95.14 205.917 L 182.724 192.487 C 190.675 191.266 197.492 186.155 200.894 178.865 L 239.496 96.32 C 241.985 90.91 249.399 90.224 252.839 95.085 C 253.115 95.474 253.354 95.889 253.553 96.32 L 292.156 178.865 C 295.563 186.162 302.391 191.274 310.353 192.487 L 397.938 205.917 C 400.834 206.325 403.238 208.359 404.122 211.147 C 405.093 213.934 404.396 217.03 402.323 219.131 L 337.924 285.246 C 332.579 290.772 330.163 298.501 331.412 306.087 Z" style="stroke: rgb(0, 0, 0); stroke-width: 4px;"/>
</svg>