<?xml version="1.0" encoding="utf-8"?>
<svg viewBox="0 0 500 500" xmlns="http://www.w3.org/2000/svg">
  <title/>
  <path d="M 414.032 224.012 C 427.079 210.725 420.847 188.295 402.814 183.641 C 402.022 183.436 312.826 169.773 312.826 169.773 C 310.259 169.374 308.06 167.719 306.969 165.361 L 268.339 82.897 C 260.451 66.12 237.361 64.173 226.776 79.392 C 226.005 80.501 186.122 165.413 186.122 165.413 C 185.017 167.751 182.822 169.387 180.265 169.773 L 92.681 183.258 C 74.271 186.061 65.799 207.742 77.431 222.285 C 77.942 222.925 143.435 290.321 143.435 290.321 C 145.16 292.105 145.947 294.597 145.559 297.05 L 130.494 389.673 C 127.48 407.987 145.422 422.694 162.788 416.147 C 163.861 415.742 164.905 415.261 165.909 414.709 L 242.76 372.074 C 245.085 370.769 247.925 370.769 250.251 372.074 L 327.102 414.709 C 343.361 423.657 363.21 411.651 362.832 393.095 C 362.809 391.949 362.704 390.806 362.516 389.673 L 347.452 297.05 C 347.06 294.597 347.846 292.103 349.576 290.321 L 414.032 224.012 Z M 331.433 299.583 L 346.498 392.207 C 347.027 395.177 345.771 398.18 343.284 399.888 C 340.882 401.628 337.684 401.798 335.111 400.325 L 258.232 357.746 C 250.979 353.689 242.14 353.689 234.887 357.746 L 158.035 400.325 C 155.461 401.791 152.268 401.62 149.863 399.888 C 147.376 398.18 146.119 395.177 146.648 392.207 L 161.713 299.583 C 162.947 291.989 160.513 284.258 155.147 278.742 L 90.774 212.627 C 88.702 210.526 88.005 207.43 88.977 204.643 C 89.86 201.855 92.264 199.821 95.161 199.413 L 182.745 185.983 C 190.696 184.762 197.513 179.651 200.915 172.361 L 239.517 89.816 C 242.006 84.406 249.42 83.72 252.86 88.581 C 253.136 88.97 253.375 89.385 253.574 89.816 L 292.177 172.361 C 295.584 179.658 302.412 184.77 310.374 185.983 L 397.959 199.413 C 400.855 199.821 403.259 201.855 404.143 204.643 C 405.114 207.43 404.417 210.526 402.344 212.627 L 337.945 278.742 C 332.6 284.268 330.184 291.997 331.433 299.583 Z" style="stroke-width: 4px; stroke: rgb(247, 255, 0); paint-order: stroke; fill: rgb(247, 255, 0);"/>
</svg>